<?xml version="1.0" encoding="utf-8"?>
<!-- Generator: Adobe Illustrator 24.1.1, SVG Export Plug-In . SVG Version: 6.00 Build 0)  -->
<svg version="1.1" id="Layer_1" xmlns="http://www.w3.org/2000/svg" xmlns:xlink="http://www.w3.org/1999/xlink" x="0px" y="0px"
	 viewBox="0 0 353.17 329.72" style="enable-background:new 0 0 353.17 329.72;" xml:space="preserve">
<path d="M108.57,60.9c-0.88,42.05,8.17,46.85-39.55,50.88c-15.72,1.33-31.73,6.14-44.49,15.62c-13.97,10.38-20.21,30.23-22.93,47.01
	c-5.94,36.74,5.29,76,24.59,107.28c25.34,41.08,75.39,62.58,119.18,36.9c5.66-3.32,10.96-7.26,16.86-10.14
	c22.49-11,49.78-2.35,73.61-5.09c28.43-3.27,55.12-4.42,79.9-20.85c34.59-22.94,50.71-75.41,24.38-109.64
	c-11.67-15.18-26.59-28.32-34.25-45.86c-10.77-24.66-5.4-53.93-15.6-78.83c-10.61-25.89-37.33-43.04-65.08-47.14
	C190.08-4.13,122.11,9.6,110.08,49.51C108.98,53.16,108.65,56.99,108.57,60.9z"/>
</svg>
