<?xml version="1.0" encoding="utf-8"?>
<!-- Generator: Adobe Illustrator 24.1.1, SVG Export Plug-In . SVG Version: 6.00 Build 0)  -->
<svg version="1.1" id="Layer_1" xmlns="http://www.w3.org/2000/svg" xmlns:xlink="http://www.w3.org/1999/xlink" x="0px" y="0px"
	 viewBox="0 0 419.9 328.14" style="enable-background:new 0 0 419.9 328.14;" xml:space="preserve">
<path d="M0.01,215.39c0.41,32.49,14.44,62.27,40.88,83.59c26.21,21.14,60.87,30.71,94.52,28.95c41.38-2.15,81.09-20.39,122.51-19.05
	c28.85,0.93,58.34,11.3,85.92,2.85c15.49-4.75,28.59-15.02,40.8-25.63c8.54-7.42,16.94-15.22,23.14-24.68
	c16.79-25.59,14.79-59.99,2.33-87.98c-9.61-21.6-24.66-40.17-40.68-57.38c-13.64-14.66-18.1-33.11-30.28-49.23
	c-25.63-33.92-64.84-56.4-106.55-63.87c-55.01-9.85-113.53,5.3-152.21,39.13C65.41,55.2,55.3,70.88,45.08,87.3
	C22.95,122.87,4.11,161.78,0.46,203.5C0.11,207.5-0.04,211.46,0.01,215.39z"/>
</svg>
