<?xml version="1.0" encoding="utf-8"?>
<!-- Generator: Adobe Illustrator 24.1.1, SVG Export Plug-In . SVG Version: 6.00 Build 0)  -->
<svg version="1.1" id="Layer_1" xmlns="http://www.w3.org/2000/svg" xmlns:xlink="http://www.w3.org/1999/xlink" x="0px" y="0px"
	 viewBox="0 0 357.18 317.63" style="enable-background:new 0 0 357.18 317.63;" xml:space="preserve">
<path d="M42.57,80.66C20.88,98.84,5.1,124.9,0.99,155.53c-2.31,17.19-0.82,36.05,6.96,53.46c12.8,28.66,40.16,48.86,66.99,63.61
	c55.28,30.41,115.68,46.12,172.87,44.97c8.49-0.17,16.99-0.72,24.8-3.08c10.79-3.25,20.89-7.33,29.82-13.81
	c11.44-8.32,22-19.27,30.34-30.94c7.83-10.96,12.51-24.37,16.13-38.08c10.85-41.08,12.56-87.86-4.2-132.29
	c-16.75-44.43-54.51-85.45-97.63-96.29c-22.92-5.76-45.68-2.9-65.98,4.2c-23.77,8.3-42.97,22.67-64.08,35.21
	C92.78,56.88,64.55,62.22,42.57,80.66z"/>
</svg>
