<?xml version="1.0" encoding="utf-8"?>
<!-- Generator: Adobe Illustrator 24.1.1, SVG Export Plug-In . SVG Version: 6.00 Build 0)  -->
<svg version="1.1" id="Layer_1" xmlns="http://www.w3.org/2000/svg" xmlns:xlink="http://www.w3.org/1999/xlink" x="0px" y="0px"
	 viewBox="0 0 342.05 348.9" style="enable-background:new 0 0 342.05 348.9;" xml:space="preserve">
<path d="M129.02,60.74c-18.37,3.89-37.18,4.62-55.58,8.35c-24.87,5.05-48.69,13.46-62.1,39.97c-13.07,25.83-15.48,60.01-3.85,87
	c8.43,19.58,21.72,38.21,37.87,49.83c20.68,14.89,43.37,26.14,67.01,33.21c25.72,7.7,53.21,10.79,75.87,26.71
	c11.87,8.34,21.83,19.86,33.64,28.31c25.21,18.06,59.18,20.18,84.82,2.94c25.64-17.24,40.71-54.11,33.61-87.17
	c-4.47-20.8-16.51-38.36-23.22-58.35c-5.75-17.12-7.46-35.99-4.91-54.09c2.62-18.66,9.52-36.29,11.22-55.15
	c1.42-15.79-3.5-35.91-11.15-49.21c-15.57-27.07-44-36.72-70.77-31.9c-20.23,3.64-40.16,15.28-57.04,28.19
	c-8.02,6.13-14.21,14.28-23.1,19.47c-9.13,5.33-19.02,8.83-29.04,11.17C131.19,60.27,130.11,60.51,129.02,60.74z"/>
</svg>
