<?xml version="1.0"?>
<svg width="146" height="152" xmlns="http://www.w3.org/2000/svg" xmlns:svg="http://www.w3.org/2000/svg" style="vector-effect: non-scaling-stroke;">
	<g class="layer">
		<g class="layer" id="svg_14">
			<g fill="none" id="svg_1">
				<path d="m0,-0.23125l146,0l0,152l-146,0l0,-152z" fill="#F2F3F7" id="svg_2"/>
				<g fill="#D6D9DD" id="svg_3" transform="translate(18.718 72.262)">
					<rect height="3.738" id="Rectangle-Copy-6" rx="1.5" width="108.564" x="0" y="-0.23125"/>
					<rect height="3.738" id="svg_4" rx="1.5" width="108.564" x="0" y="9.73575"/>
					<rect height="3.738" id="svg_5" rx="1.5" width="78.615" x="0" y="19.70275"/>
				</g>
				<g fill="#D6D9DD" id="svg_6">
					<ellipse cx="45.442743" cy="29.297" fill="#d6d9dd" id="svg_7" rx="10.537241" ry="11.213"/>
					<rect height="6.23" id="svg_8" rx="3" width="31.610786" x="61.83359" y="23.068"/>
					<rect fill="#d6d9dd" height="2.492" id="svg_9" rx="1.246" width="46.831663" x="61.83359" y="33.035"/>
					<ellipse cx="50.690616" cy="134.743737" fill="#d6d9dd" id="svg_39" rx="4.871616" ry="4.969249"/>
					<ellipse cx="71.670311" cy="134.797073" fill="#d6d9dd" id="svg_41" rx="4.871616" ry="4.853624"/>
					<ellipse cx="91.55781" cy="134.681448" fill="#d6d9dd" id="svg_42" rx="4.871616" ry="4.969249"/>
				</g>
				<path d="m67.16121,106.0815l-4.25969,0c-1.28543,0 -2.32727,1.13771 -2.32727,2.54143l0,4.82448c0,2.71171 0.52596,4.85244 1.57789,6.4205c1.05193,1.56891 2.85556,2.95399 5.41013,4.15609l1.92621,-3.9138c-1.57091,-0.79123 -2.65697,-1.57993 -3.25818,-2.36353c-0.60122,-0.78446 -0.93557,-1.71123 -1.00383,-2.78117l1.93474,0c1.28543,0 2.32727,-1.13772 2.32727,-2.54144l0,-3.80028c0,-1.40372 -1.04184,-2.54143 -2.32727,-2.54143l0,-0.00085zm10.28577,0l-4.25969,0c-1.28543,0 -2.32727,1.13771 -2.32727,2.54143l0,4.82448c0,2.71171 0.52596,4.85244 1.57789,6.4205c1.05193,1.56891 2.85556,2.95399 5.41013,4.15609l1.92621,-3.9138c-1.57091,-0.79123 -2.65697,-1.57993 -3.25818,-2.36353c-0.60122,-0.78446 -0.93557,-1.71123 -1.00383,-2.78117l1.93473,0c1.28543,0 2.32728,-1.13772 2.32728,-2.54144l0,-3.80028c0,-1.40372 -1.04184,-2.54143 -2.32728,-2.54143l0,-0.00085l0.00001,0z" fill="#D6D9DD" fill-rule="nonzero" id="svg_10"/>
				<g fill="#D6D9DD" fill-rule="nonzero" id="svg_11">
					<path d="m52.963,52.2255c0,0.1 -0.072,0.195 -0.145,0.267l-2.022,1.969l0.479,2.781l0.006,0.111c0,0.145 -0.067,0.278 -0.228,0.278c-0.078,0 -0.156,-0.028 -0.223,-0.067l-2.501,-1.313l-2.501,1.313c-0.072,0.039 -0.145,0.067 -0.223,0.067c-0.162,0 -0.234,-0.133 -0.234,-0.278l0.011,-0.111l0.479,-2.781l-2.028,-1.969c-0.067,-0.072 -0.139,-0.167 -0.139,-0.267c0,-0.167 0.173,-0.234 0.312,-0.256l2.797,-0.406l1.253,-2.531c0.05,-0.106 0.145,-0.228 0.273,-0.228c0.128,0 0.223,0.122 0.273,0.228l1.253,2.531l2.797,0.406c0.134,0.022 0.312,0.089 0.312,0.256l-0.001,0zm12.478,0c0,0.1 -0.072,0.195 -0.145,0.267l-2.022,1.969l0.479,2.781l0.006,0.111c0,0.145 -0.067,0.278 -0.228,0.278c-0.078,0 -0.156,-0.028 -0.223,-0.067l-2.501,-1.313l-2.501,1.313c-0.072,0.039 -0.145,0.067 -0.223,0.067c-0.162,0 -0.234,-0.133 -0.234,-0.278l0.011,-0.111l0.479,-2.781l-2.028,-1.969c-0.067,-0.072 -0.139,-0.167 -0.139,-0.267c0,-0.167 0.173,-0.234 0.312,-0.256l2.797,-0.406l1.253,-2.531c0.05,-0.106 0.145,-0.228 0.273,-0.228c0.128,0 0.223,0.122 0.273,0.228l1.253,2.531l2.797,0.406c0.134,0.022 0.312,0.089 0.312,0.256l-0.001,0zm12.479,0c0,0.1 -0.072,0.195 -0.145,0.267l-2.022,1.969l0.479,2.781l0.006,0.111c0,0.145 -0.067,0.278 -0.228,0.278c-0.078,0 -0.156,-0.028 -0.223,-0.067l-2.501,-1.313l-2.501,1.313c-0.072,0.039 -0.145,0.067 -0.223,0.067c-0.162,0 -0.234,-0.133 -0.234,-0.278l0.011,-0.111l0.479,-2.781l-2.028,-1.969c-0.067,-0.072 -0.139,-0.167 -0.139,-0.267c0,-0.167 0.173,-0.234 0.312,-0.256l2.797,-0.406l1.253,-2.531c0.05,-0.106 0.145,-0.228 0.273,-0.228c0.128,0 0.223,0.122 0.273,0.228l1.253,2.531l2.797,0.406c0.134,0.022 0.312,0.089 0.312,0.256l-0.001,0zm12.479,0c0,0.1 -0.072,0.195 -0.145,0.267l-2.022,1.969l0.479,2.781l0.006,0.111c0,0.145 -0.067,0.278 -0.228,0.278c-0.078,0 -0.156,-0.028 -0.223,-0.067l-2.501,-1.313l-2.501,1.313c-0.072,0.039 -0.145,0.067 -0.223,0.067c-0.162,0 -0.234,-0.133 -0.234,-0.278l0.011,-0.111l0.479,-2.781l-2.028,-1.969c-0.067,-0.072 -0.139,-0.167 -0.139,-0.267c0,-0.167 0.173,-0.234 0.312,-0.256l2.797,-0.406l1.253,-2.531c0.05,-0.106 0.145,-0.228 0.273,-0.228c0.128,0 0.223,0.122 0.273,0.228l1.253,2.531l2.797,0.406c0.134,0.022 0.312,0.089 0.312,0.256l-0.001,0z" id="svg_12"/>
					<path d="m99.942,54.2105l1.705,-1.652l-2.351,-0.345l-1.053,-2.125l-1.053,2.125l-2.351,0.345l1.705,1.652l-0.407,2.342l2.106,-1.107l2.1,1.107l-0.401,-2.342zm2.936,-1.986c0,0.1 -0.072,0.195 -0.145,0.267l-2.022,1.969l0.479,2.781l0.006,0.111c0,0.15 -0.067,0.278 -0.228,0.278c-0.078,0 -0.156,-0.028 -0.223,-0.067l-2.501,-1.313l-2.501,1.313c-0.072,0.039 -0.145,0.067 -0.223,0.067c-0.162,0 -0.234,-0.133 -0.234,-0.278l0.011,-0.111l0.479,-2.781l-2.028,-1.969c-0.067,-0.072 -0.139,-0.167 -0.139,-0.267c0,-0.167 0.173,-0.234 0.312,-0.256l2.797,-0.406l1.253,-2.531c0.05,-0.106 0.145,-0.228 0.273,-0.228c0.128,0 0.223,0.122 0.273,0.228l1.253,2.531l2.797,0.406c0.134,0.022 0.312,0.089 0.312,0.256l-0.001,0z" id="svg_13"/>
				</g>
			</g>
		</g>
	</g>
</svg>
