<?xml version="1.0"?>
<svg width="146" height="152" xmlns="http://www.w3.org/2000/svg" xmlns:svg="http://www.w3.org/2000/svg">
	<g class="layer">
		<g fill="none" id="svg_1">
			<path d="m0,0l146,0l0,152l-146,0l0,-152z" fill="#F2F3F7" id="svg_2"/>
			<g fill="#D6D9DD" id="svg_3" transform="translate(18.718 72.262)">
				<rect height="3.738" id="Rectangle-Copy-6" rx="1.5" width="108.564"/>
				<rect height="3.738" id="svg_4" rx="1.5" width="108.564" y="9.967"/>
				<rect height="3.738" id="svg_5" rx="1.5" width="78.615" y="19.934"/>
			</g>
			<g fill="#D6D9DD" id="svg_6">
				<ellipse cx="45.673993" cy="29.52825" id="svg_7" rx="10.537241" ry="11.213"/>
				<rect height="6.23" id="svg_8" rx="3" width="31.610786" x="62.06484" y="23.29925"/>
				<rect height="2.492" id="svg_9" rx="1.246" width="46.831663" x="62.06484" y="33.26625"/>
			</g>
			<path d="m67.161207,106.31275l-4.259685,0c-1.28543,0 -2.327273,1.137714 -2.327273,2.541431l0,4.824482c0,2.711706 0.525964,4.852438 1.577891,6.420501c1.051927,1.56891 2.855564,2.953989 5.410133,4.156086l1.926206,-3.913803c-1.570909,-0.791232 -2.65697,-1.579923 -3.258182,-2.36353c-0.601212,-0.784455 -0.935564,-1.71123 -1.00383,-2.781172l1.934739,0c1.28543,0 2.327273,-1.137714 2.327273,-2.541431l0,-3.800286c0,-1.403717 -1.041842,-2.541431 -2.327273,-2.541431l0,-0.000847zm10.285769,0l-4.259685,0c-1.28543,0 -2.327273,1.137714 -2.327273,2.541431l0,4.824482c0,2.711706 0.525964,4.852438 1.577891,6.420501c1.051927,1.56891 2.855564,2.953989 5.410133,4.156086l1.926206,-3.913803c-1.570909,-0.791232 -2.65697,-1.579923 -3.258182,-2.36353c-0.601212,-0.784455 -0.935564,-1.71123 -1.00383,-2.781172l1.934739,0c1.28543,0 2.327273,-1.137714 2.327273,-2.541431l0,-3.800286c0,-1.403717 -1.041842,-2.541431 -2.327273,-2.541431l0,-0.000847z" fill="#D6D9DD" fill-rule="nonzero" id="svg_10"/>
			<g fill="#D6D9DD" fill-rule="nonzero" id="svg_11">
				<path d="m52.963,52.45675c0,0.1 -0.072,0.195 -0.145,0.267l-2.022,1.969l0.479,2.781l0.006,0.111c0,0.145 -0.067,0.278 -0.228,0.278c-0.078,0 -0.156,-0.028 -0.223,-0.067l-2.501,-1.313l-2.501,1.313c-0.072,0.039 -0.145,0.067 -0.223,0.067c-0.162,0 -0.234,-0.133 -0.234,-0.278l0.011,-0.111l0.479,-2.781l-2.028,-1.969c-0.067,-0.072 -0.139,-0.167 -0.139,-0.267c0,-0.167 0.173,-0.234 0.312,-0.256l2.797,-0.406l1.253,-2.531c0.05,-0.106 0.145,-0.228 0.273,-0.228c0.128,0 0.223,0.122 0.273,0.228l1.253,2.531l2.797,0.406c0.134,0.022 0.312,0.089 0.312,0.256l-0.001,0zm12.478,0c0,0.1 -0.072,0.195 -0.145,0.267l-2.022,1.969l0.479,2.781l0.006,0.111c0,0.145 -0.067,0.278 -0.228,0.278c-0.078,0 -0.156,-0.028 -0.223,-0.067l-2.501,-1.313l-2.501,1.313c-0.072,0.039 -0.145,0.067 -0.223,0.067c-0.162,0 -0.234,-0.133 -0.234,-0.278l0.011,-0.111l0.479,-2.781l-2.028,-1.969c-0.067,-0.072 -0.139,-0.167 -0.139,-0.267c0,-0.167 0.173,-0.234 0.312,-0.256l2.797,-0.406l1.253,-2.531c0.05,-0.106 0.145,-0.228 0.273,-0.228c0.128,0 0.223,0.122 0.273,0.228l1.253,2.531l2.797,0.406c0.134,0.022 0.312,0.089 0.312,0.256l-0.001,0zm12.479,0c0,0.1 -0.072,0.195 -0.145,0.267l-2.022,1.969l0.479,2.781l0.006,0.111c0,0.145 -0.067,0.278 -0.228,0.278c-0.078,0 -0.156,-0.028 -0.223,-0.067l-2.501,-1.313l-2.501,1.313c-0.072,0.039 -0.145,0.067 -0.223,0.067c-0.162,0 -0.234,-0.133 -0.234,-0.278l0.011,-0.111l0.479,-2.781l-2.028,-1.969c-0.067,-0.072 -0.139,-0.167 -0.139,-0.267c0,-0.167 0.173,-0.234 0.312,-0.256l2.797,-0.406l1.253,-2.531c0.05,-0.106 0.145,-0.228 0.273,-0.228c0.128,0 0.223,0.122 0.273,0.228l1.253,2.531l2.797,0.406c0.134,0.022 0.312,0.089 0.312,0.256l-0.001,0zm12.479,0c0,0.1 -0.072,0.195 -0.145,0.267l-2.022,1.969l0.479,2.781l0.006,0.111c0,0.145 -0.067,0.278 -0.228,0.278c-0.078,0 -0.156,-0.028 -0.223,-0.067l-2.501,-1.313l-2.501,1.313c-0.072,0.039 -0.145,0.067 -0.223,0.067c-0.162,0 -0.234,-0.133 -0.234,-0.278l0.011,-0.111l0.479,-2.781l-2.028,-1.969c-0.067,-0.072 -0.139,-0.167 -0.139,-0.267c0,-0.167 0.173,-0.234 0.312,-0.256l2.797,-0.406l1.253,-2.531c0.05,-0.106 0.145,-0.228 0.273,-0.228c0.128,0 0.223,0.122 0.273,0.228l1.253,2.531l2.797,0.406c0.134,0.022 0.312,0.089 0.312,0.256l-0.001,0z" id="svg_12"/>
				<path d="m99.942,54.44175l1.705,-1.652l-2.351,-0.345l-1.053,-2.125l-1.053,2.125l-2.351,0.345l1.705,1.652l-0.407,2.342l2.106,-1.107l2.1,1.107l-0.401,-2.342zm2.936,-1.986c0,0.1 -0.072,0.195 -0.145,0.267l-2.022,1.969l0.479,2.781l0.006,0.111c0,0.15 -0.067,0.278 -0.228,0.278c-0.078,0 -0.156,-0.028 -0.223,-0.067l-2.501,-1.313l-2.501,1.313c-0.072,0.039 -0.145,0.067 -0.223,0.067c-0.162,0 -0.234,-0.133 -0.234,-0.278l0.011,-0.111l0.479,-2.781l-2.028,-1.969c-0.067,-0.072 -0.139,-0.167 -0.139,-0.267c0,-0.167 0.173,-0.234 0.312,-0.256l2.797,-0.406l1.253,-2.531c0.05,-0.106 0.145,-0.228 0.273,-0.228c0.128,0 0.223,0.122 0.273,0.228l1.253,2.531l2.797,0.406c0.134,0.022 0.312,0.089 0.312,0.256l-0.001,0z" id="svg_13"/>
			</g>
		</g>
	</g>
</svg>
