<svg width="146" height="111" xmlns="http://www.w3.org/2000/svg" xmlns:svg="http://www.w3.org/2000/svg">
 <!-- Generator: Sketch 54.1 (76490) - https://sketchapp.com -->
 <title>Group 73 Copy</title>
 <desc>Created with Sketch.</desc>
 <g class="layer">
	<title>Layer 1</title>
	<g fill="none" fill-rule="evenodd" id="Assets">
	 <g id="Artboard-Copy">
		<g id="Group-73-Copy">
		 <rect fill="#F2F3F7" height="110.707317" id="Rectangle-Copy-983" width="145.536585" x="-0.25"/>
		 <g id="svg_7">
			<rect fill="#D6D9DD" height="73.128043" id="Rectangle-Copy-1005" rx="3" width="41.378052" x="13.189025" y="18.689024"/>
			<g id="svg_40">
			 <rect fill="#D6D9DD" height="18.62805" id="svg_34" rx="3" width="16.128051" x="67.685974" y="19.185977"/>
			 <rect fill="#D6D9DD" height="4.378051" id="svg_35" rx="3" width="22.128052" x="90.310974" y="21.560974"/>
			 <rect fill="#D6D9DD" height="2.628051" id="svg_38" rx="3" width="42.378051" x="90.310973" y="28.060974"/>
			 <rect fill="#D6D9DD" height="2.628051" id="svg_39" rx="3" width="42.378051" x="89.935973" y="32.685974"/>
			</g>
			<g id="svg_56">
			 <rect fill="#D6D9DD" height="18.62805" id="svg_57" rx="3" width="16.128051" x="68.373474" y="45.435975"/>
			 <rect fill="#D6D9DD" height="4.378051" id="svg_58" rx="3" width="22.128052" x="90.998474" y="47.810972"/>
			 <rect fill="#D6D9DD" height="2.628051" id="svg_59" rx="3" width="42.378051" x="90.998473" y="54.310972"/>
			 <rect fill="#D6D9DD" height="2.628051" id="svg_60" rx="3" width="42.378051" x="90.623473" y="58.935972"/>
			</g>
			<g id="svg_61">
			 <rect fill="#D6D9DD" height="18.62805" id="svg_62" rx="3" width="16.128051" x="68.373474" y="72.435975"/>
			 <rect fill="#D6D9DD" height="4.378051" id="svg_63" rx="3" width="22.128052" x="90.998474" y="74.810972"/>
			 <rect fill="#D6D9DD" height="2.628051" id="svg_64" rx="3" width="42.378051" x="90.998473" y="81.310972"/>
			 <rect fill="#D6D9DD" height="2.628051" id="svg_65" rx="3" width="42.378051" x="90.623473" y="85.935972"/>
			</g>
		 </g>
		</g>
	 </g>
	</g>
 </g>
</svg>
