<?xml version="1.0"?>
<svg width="146" height="111" xmlns="http://www.w3.org/2000/svg" xmlns:svg="http://www.w3.org/2000/svg">
 <!-- Generator: Sketch 54.1 (76490) - https://sketchapp.com -->
 <title>Group 73 Copy</title>
 <desc>Created with Sketch.</desc>
 <g class="layer">
  <title>Layer 1</title>
  <g fill="none" fill-rule="evenodd" id="Assets">
   <g id="Artboard-Copy">
    <g id="Group-73-Copy">
     <rect fill="#F2F3F7" height="110.707317" id="Rectangle-Copy-983" width="145.536585" x="-0.25"/>
     <g id="svg_7">
      <g id="svg_10">
       <rect fill="#D6D9DD" height="31.628047" id="Rectangle-Copy-1005" rx="3" width="43.128052" x="13.189025" y="18.689023"/>
       <rect fill="#D6D9DD" height="3.670149" id="Rectangle-Copy-1053" rx="2.487805" width="39.78049" x="63.036585" y="18.978752"/>
       <rect fill="#D6D9DD" height="2.835074" id="Rectangle-Copy-1065" rx="1.243902" width="70.310973" x="63.036586" y="32.408979"/>
       <rect fill="#D6D9DD" height="2.150668" id="svg_3" rx="1.243902" width="10.810973" x="63.219513" y="25.706983"/>
       <rect fill="#D6D9DD" height="2.150668" id="svg_4" rx="1.243902" width="10.810973" x="77.219513" y="25.614778"/>
       <rect fill="#D6D9DD" height="2.400668" id="svg_5" rx="1.243902" width="10.810973" x="91.469513" y="25.680371"/>
       <rect fill="#D6D9DD" height="2.650667" id="svg_6" rx="1.243902" width="10.810973" x="63.469514" y="46.977513"/>
       <rect fill="#D6D9DD" height="2.835074" id="svg_8" rx="1.243902" width="70.310973" x="63.219512" y="36.957464"/>
       <rect fill="#D6D9DD" height="2.585074" id="svg_9" rx="1.243902" width="70.310973" x="63.219512" y="42.207463"/>
      </g>
      <g id="svg_11">
       <rect fill="#D6D9DD" height="31.628047" id="svg_12" rx="3" width="43.128052" x="12.454269" y="60.685975"/>
       <rect fill="#D6D9DD" height="3.670149" id="svg_13" rx="2.487805" width="39.78049" x="62.30183" y="60.975704"/>
       <rect fill="#D6D9DD" height="2.835074" id="svg_14" rx="1.243902" width="70.310973" x="62.30183" y="74.405931"/>
       <rect fill="#D6D9DD" height="2.150668" id="svg_15" rx="1.243902" width="10.810973" x="62.484757" y="67.703935"/>
       <rect fill="#D6D9DD" height="2.150668" id="svg_16" rx="1.243902" width="10.810973" x="76.484757" y="67.61173"/>
       <rect fill="#D6D9DD" height="2.400668" id="svg_17" rx="1.243902" width="10.810973" x="90.734757" y="67.677323"/>
       <rect fill="#D6D9DD" height="2.650667" id="svg_18" rx="1.243902" width="10.810973" x="62.734758" y="88.974465"/>
       <rect fill="#D6D9DD" height="2.835074" id="svg_19" rx="1.243902" width="70.310973" x="62.484757" y="78.954416"/>
       <rect fill="#D6D9DD" height="2.585074" id="svg_20" rx="1.243902" width="70.310973" x="62.484757" y="84.204416"/>
      </g>
     </g>
    </g>
   </g>
  </g>
 </g>
</svg>
