<svg width="65" height="49" xmlns="http://www.w3.org/2000/svg" xmlns:svg="http://www.w3.org/2000/svg">
 <g class="layer">
	<g fill="none" fill-rule="evenodd">
	 <g>
		 <rect fill="#F2F3F7" height="49" width="65" x="0" y="0"/>
		 <path d="m51.277778,7.205882c2.792106,0 5.055555,2.258329 5.055555,5.044118c0,2.785789 -2.263449,5.044118 -5.055555,5.044118c-2.792106,0 -5.055556,-2.258329 -5.055556,-5.044118c0,-2.785789 2.26345,-5.044118 5.055556,-5.044118l0,0z" fill="#d7d9dd" fill-rule="nonzero"/>
		 <path d="m63.555454,43.744912c0,1.615258 -1.49487,3.813912 -4.294877,3.813912l-53.461732,0c-2.334649,0 -4.354291,-1.686254 -4.354291,-3.813912l0,-8.841404c-0.007083,-0.771615 0.329013,-1.514111 0.93428,-2.063991l16.443319,-14.715335c1.29324,-1.106752 3.331442,-1.106752 4.624683,0l12.211033,10.904891l6.063474,-5.423199c0.613249,-0.548549 1.445031,-0.856725 2.312341,-0.856725c0.86731,0 1.699093,0.308176 2.312342,0.856725l16.24712,14.531499c0.605267,0.549879 0.969391,1.059878 0.962308,1.831494l0,3.776045z" fill="#d7d9dd" fill-rule="nonzero"/>
		</g>
	</g>
 </g>
</svg>
