<?xml version="1.0"?>
<svg width="146" height="90" xmlns="http://www.w3.org/2000/svg" xmlns:svg="http://www.w3.org/2000/svg">
 <g class="layer">
  <title>Layer 1</title>
  <g fill="none" id="svg_1">
   <g id="svg_17">
    <g id="svg_2">
     <rect fill="#d6d9dd" height="3.736" id="svg_16" rx="1.5" width="100.396007" x="27.96875" y="32.038249"/>
     <path d="m21.11225,35.58897l-3.04811,2.06632l1.16517,-3.34248l-3.04742,-2.06632l3.7669,0.00064l1.00117,-2.87409l0.16332,-0.46679l1.16311,3.34024l3.76793,0l-3.04879,2.06632l1.16551,3.34344l-3.04879,-2.06728l0,0z" fill="#d6d9dd" id="svg_20"/>
    </g>
    <g id="svg_3">
     <rect fill="#d6d9dd" height="3.736" id="svg_4" rx="1.5" width="100.396007" x="28.570433" y="43.756999"/>
     <path d="m21.713933,47.30772l-3.04811,2.06632l1.16517,-3.34248l-3.04742,-2.06632l3.7669,0.00064l1.00117,-2.87409l0.16332,-0.46679l1.16311,3.34024l3.76793,0l-3.04879,2.06632l1.16551,3.34344l-3.04879,-2.06728l0,0z" fill="#d6d9dd" id="svg_5"/>
    </g>
    <g id="svg_6">
     <rect fill="#d6d9dd" height="3.736" id="svg_7" rx="1.5" width="100.396007" x="28.570433" y="55.506999"/>
     <path d="m21.713933,59.05772l-3.04811,2.06632l1.16517,-3.34248l-3.04742,-2.06632l3.7669,0.00064l1.00117,-2.87409l0.16332,-0.46679l1.16311,3.34024l3.76793,0l-3.04879,2.06632l1.16551,3.34344l-3.04879,-2.06728l0,0z" fill="#d6d9dd" id="svg_8"/>
    </g>
   </g>
  </g>
 </g>
</svg>
