<?xml version="1.0"?>
<svg width="146" height="90" xmlns="http://www.w3.org/2000/svg" xmlns:svg="http://www.w3.org/2000/svg">
 <g class="layer">
  <title>Layer 1</title>
  <g fill="none" id="svg_1">
   <g id="svg_17">
    <rect fill="#d6d9dd" height="3.736" id="svg_16" rx="1.5" width="36.395998" x="92.218752" y="33.288249"/>
    <path d="m86.36225,36.83897l-3.04811,2.06632l1.16517,-3.34248l-3.04742,-2.06632l3.7669,0.00064l1.00117,-2.87409l0.16332,-0.46679l1.16311,3.34024l3.76793,0l-3.04879,2.06632l1.16551,3.34344l-3.04879,-2.06728l0,0z" fill="#d6d9dd" id="svg_20"/>
    <path d="m86.717894,48.37022l-3.04811,2.06632l1.16517,-3.34248l-3.04742,-2.06632l3.7669,0.00064l1.00117,-2.87409l0.16332,-0.46679l1.16311,3.34024l3.76793,0l-3.04879,2.06632l1.16551,3.34344l-3.04879,-2.06728l0,0z" fill="#d6d9dd" id="svg_4"/>
    <rect fill="#d6d9dd" height="3.736" id="svg_6" rx="1.5" width="36.395998" x="92.927002" y="44.631999"/>
    <rect fill="#d6d9dd" height="3.736" id="svg_7" rx="1.5" width="36.395998" x="92.927002" y="54.881999"/>
    <path d="m86.874144,58.05772l-3.04811,2.06632l1.16517,-3.34248l-3.04742,-2.06632l3.7669,0.00064l1.00117,-2.87409l0.16332,-0.46679l1.16311,3.34024l3.76793,0l-3.04879,2.06632l1.16551,3.34344l-3.04879,-2.06728l0,0z" fill="#d6d9dd" id="svg_8"/>
   </g>
   <g id="svg_18">
    <rect fill="#d6d9dd" height="3.736" id="svg_9" rx="1.5" width="36.395998" x="22.427002" y="31.631999"/>
    <rect fill="#d6d9dd" height="2.486" id="svg_10" rx="1.5" width="15.145997" x="29.927002" y="41.881999"/>
    <rect fill="#d6d9dd" height="2.235998" id="svg_11" rx="1.5" width="52.145997" x="15.677002" y="47.631999"/>
    <rect fill="#d6d9dd" height="2.235998" id="svg_12" rx="1.5" width="52.145997" x="15.552002" y="53.132"/>
    <rect fill="#d6d9dd" height="2.235998" id="svg_13" rx="1.5" width="13.895996" x="16.052002" y="59.882"/>
   </g>
  </g>
 </g>
</svg>
