<?xml version="1.0" encoding="utf-8"?>
<!-- Generator: Adobe Illustrator 18.0.0, SVG Export Plug-In . SVG Version: 6.00 Build 0)  -->
<!DOCTYPE svg PUBLIC "-//W3C//DTD SVG 1.1//EN" "http://www.w3.org/Graphics/SVG/1.1/DTD/svg11.dtd">
<svg version="1.1" id="Layer_1" xmlns="http://www.w3.org/2000/svg" xmlns:xlink="http://www.w3.org/1999/xlink" x="0px" y="0px"
	 viewBox="0 0 170 25" enable-background="new 0 0 170 25" xml:space="preserve">
<defs>
    <linearGradient id="bones-gradient" x1="0%" y1="0%" x2="50%" y2="100%">
		<stop offset="0%" style="stop-color:#0dcad2;stop-opacity:0.5" />
		<stop offset="100%" style="stop-color:#0060f3;stop-opacity:1" />
    </linearGradient>
</defs>
<g>
	<path fill="url(#bones-gradient)" d="M12.5,16.1h5.8c-0.9,2.1-2.7,3.1-5.5,3.1c-2.1,0-3.8-0.6-5-1.9C6.6,16,6,14.5,6,12.6
			c0-1.9,0.6-3.5,1.8-4.7c1.2-1.2,2.7-1.8,4.6-1.8c1.2,0,2.2,0.2,3.1,0.7c0.9,0.5,1.6,1.1,2.1,1.8l5.2-3c-1-1.7-2.5-3-4.3-4
			c-1.8-1-3.9-1.5-6.1-1.5c-3.5,0-6.4,1.2-8.8,3.6C1.2,6.2,0,9.1,0,12.6c0,3.5,1.2,6.4,3.6,8.8C6,23.8,9,25,12.7,25
			c3.5,0,6.3-1.1,8.5-3.3c2.2-2.2,3.3-5,3.3-8.5v-2.4h-12V16.1z M36.6,16.5c0,1-0.2,1.8-0.7,2.3c-0.5,0.5-1.2,0.8-2.1,0.8
			c-0.8,0-1.4-0.2-1.8-0.7c-0.5-0.5-0.7-1.1-0.7-2V7.5h-5.6v10.2c0,2.4,0.6,4.2,1.7,5.4c1.2,1.3,2.7,1.9,4.5,1.9
			c2.1,0,3.7-0.7,4.7-2.2v1.7h5.6v-17h-5.6V16.5z M51.7,2.7L46,4.4v3.1h-2.5v5.4H46V18c0,2.7,0.7,4.6,2.1,5.6c1.4,1,3.7,1.3,7.1,0.9
			v-5.1c-1.3,0.1-2.2,0-2.7-0.2c-0.5-0.2-0.8-0.6-0.8-1.4v-4.9h3.5V7.5h-3.5V2.7z M65.3,7c-2.6,0-4.8,0.9-6.5,2.6
			c-1.7,1.7-2.5,3.9-2.5,6.4c0,2.6,0.9,4.7,2.6,6.4c1.7,1.7,4,2.5,6.9,2.5c3.2,0,5.6-1.1,7.3-3.2L69,18.9c-0.8,0.8-1.9,1.2-3.1,1.2
			c-2,0-3.2-0.7-3.8-2.1h11.7c0.2-0.7,0.2-1.4,0.2-2.1c0-2.6-0.8-4.7-2.5-6.4C69.9,7.8,67.8,7,65.3,7z M62,14.1
			c0.5-1.6,1.6-2.4,3.3-2.4c1.7,0,2.7,0.8,3.2,2.4H62z M89,8C89,8,89,8,89,8c-0.9-0.7-2.1-1-3.4-1c-2.1,0-3.7,0.7-4.7,2.2V7.5h-5.7
			v17.1h5.7v-9.1c0-1,0.2-1.8,0.7-2.3c0.5-0.5,1.2-0.8,2-0.8c0.8,0,1.4,0.2,1.9,0.7c0.5,0.5,0.7,1.1,0.7,2v9.5h5.6v-3.1
			c-1-1.1-1.9-2.3-2.5-3.9C87.8,14.3,87.8,11.2,89,8z M112.7,6l-11,4.8l2.1,4.8l5.3-2.3c0,2.3-1.2,4-3.7,5.1c-2,0.9-3.7,1-5.3,0.3
			c-1.6-0.7-2.8-1.9-3.5-3.6c-0.8-1.7-0.8-3.4-0.2-5c0.6-1.6,1.8-2.8,3.5-3.5c1.1-0.5,2.1-0.7,3.1-0.6c1,0,1.9,0.3,2.6,0.8l3.5-4.8
			c-1.6-1.1-3.5-1.7-5.6-1.9c-2.1-0.2-4.1,0.2-6.2,1.1c-3.2,1.4-5.4,3.7-6.6,6.9c-1.2,3.2-1.1,6.3,0.3,9.5c1.4,3.2,3.7,5.4,6.8,6.6
			c3.1,1.2,6.4,1.1,9.8-0.4c3.2-1.4,5.3-3.5,6.5-6.4c1.1-2.9,1-5.9-0.4-9.1L112.7,6z M124.7,7c-2.6,0-4.8,0.9-6.5,2.6
			c-1.7,1.7-2.5,3.9-2.5,6.4c0,2.6,0.9,4.7,2.6,6.4c1.7,1.7,4,2.5,6.9,2.5c3.2,0,5.6-1.1,7.3-3.2l-4.1-2.9c-0.8,0.8-1.9,1.2-3.1,1.2
			c-2,0-3.2-0.7-3.8-2.1h11.7c0.2-0.7,0.2-1.4,0.2-2.1c0-2.6-0.8-4.7-2.5-6.4C129.3,7.8,127.2,7,124.7,7z M121.4,14.1
			c0.5-1.6,1.6-2.4,3.3-2.4c1.7,0,2.7,0.8,3.2,2.4H121.4z M143.3,7c-2.6,0-4.8,0.9-6.5,2.6c-1.7,1.7-2.5,3.9-2.5,6.4
			c0,2.6,0.9,4.7,2.6,6.4c1.7,1.7,4,2.5,6.9,2.5c3.2,0,5.6-1.1,7.3-3.2l-4.1-2.9c-0.8,0.8-1.9,1.2-3.1,1.2c-2,0-3.2-0.7-3.8-2.1
			h11.7c0.2-0.7,0.2-1.4,0.2-2.1c0-2.6-0.8-4.7-2.5-6.4C147.9,7.8,145.8,7,143.3,7z M140.1,14.1c0.5-1.6,1.6-2.4,3.3-2.4
			c1.7,0,2.7,0.8,3.2,2.4H140.1z M164.1,16l5.7-8.5h-6.5l-4.4,7.1V0.6h-5.6v23.8h5.6v-7.3l4.8,7.3h6.3L164.1,16z"/>
</g>
</svg>
