<?xml version="1.0"?>
<svg width="304" height="107" xmlns="http://www.w3.org/2000/svg" xmlns:svg="http://www.w3.org/2000/svg">
 <title>Group 3</title>
 <desc>Created with Sketch.</desc>
 <g class="layer">
  <title>Layer 1</title>
  <g fill="none" id="svg_1">
   <path d="m44.249999,99.999999l304,0l0,107l-304,0l0,-107z" fill="none" id="svg_2"/>
   <g fill="#D6D9DD" id="svg_6">
    <ellipse cx="275.178675" cy="88.691997" fill="#d6d9dd" id="svg_12" rx="7.571334" ry="3.733"/>
    <rect fill="#d6d9dd" height="3.483" id="svg_20" rx="1.5" width="268.191678" x="16.22633" y="48.172665"/>
    <rect fill="#d6d9dd" height="3.483" id="svg_21" rx="1.5" width="268.191678" x="16.22633" y="60.839332"/>
    <rect fill="#d6d9dd" height="3.483" id="svg_22" rx="1.5" width="268.191678" x="16.22633" y="73.839333"/>
    <rect fill="#d6d9dd" height="1.816334" id="svg_23" rx="1.5" width="46.858344" x="17.737491" y="86.091836"/>
   </g>
  </g>
  <path d="m29.589356,18.636319c-3.773094,2.415087 -5.658204,5.324692 -5.658204,8.728814c0,1.058038 0.184007,1.587057 0.55202,1.587057l0.379514,-0.102545c0.299011,-0.115004 0.539561,-0.172506 0.724526,-0.172506c1.081039,0 1.983821,0.393889 2.708348,1.177834c0.724526,0.785862 1.086789,1.75573 1.086789,2.910563c0,1.108832 -0.391014,2.050907 -1.173042,2.82431c-0.782028,0.773403 -1.726021,1.160583 -2.829102,1.160583c-1.541056,0 -2.81281,-0.633481 -3.813346,-1.901402c-1.000536,-1.266004 -1.499846,-2.855936 -1.499846,-4.769797c0,-2.164953 0.424557,-4.146858 1.276546,-5.944756c0.851031,-1.79694 2.149619,-3.421373 3.897682,-4.873301c1.748063,-1.450969 2.863603,-2.177412 3.346621,-2.177412c0.322012,0 0.586521,0.155256 0.793529,0.465767c0.207007,0.310511 0.310511,0.580771 0.310511,0.810779l-0.102545,0.27601zm12.420448,0c-3.773094,2.415087 -5.658204,5.324692 -5.658204,8.728814c0,1.058038 0.184007,1.587057 0.55202,1.587057l0.379514,-0.102545c0.299011,-0.115004 0.539561,-0.172506 0.724526,-0.172506c1.058038,0 1.95507,0.393889 2.691097,1.177834c0.736985,0.785862 1.10404,1.75573 1.10404,2.910563c0,1.108832 -0.391014,2.050907 -1.173042,2.82431c-0.782028,0.773403 -1.726021,1.160583 -2.829102,1.160583c-1.541056,0 -2.81281,-0.633481 -3.813346,-1.901402c-1.000536,-1.266004 -1.499846,-2.855936 -1.499846,-4.769797c0,-2.188912 0.430307,-4.187109 1.293797,-5.995549c0.862531,-1.80844 2.162078,-3.428082 3.89864,-4.85605c1.736563,-1.427968 2.846353,-2.142911 3.32937,-2.142911c0.322012,0 0.586521,0.155256 0.793529,0.465767c0.207007,0.310511 0.310511,0.580771 0.310511,0.810779l-0.103504,0.275052z" fill="#d6d9dd" id="svg_16" stroke="#d6d9dd" stroke-width="5"/>
 </g>
</svg>
