<?xml version="1.0"?>
<svg width="147" height="45" xmlns="http://www.w3.org/2000/svg" xmlns:svg="http://www.w3.org/2000/svg">
 <g class="layer">
  <title>Layer 1</title>
  <g fill="none" id="svg_1">
   <rect fill="#fff" height="45" id="svg_2" rx="4" width="146.25" x="0" y="0"/>
   <rect fill="#d6d9dd" height="30" id="svg_3" rx="4" width="30" x="7.5" y="7.5"/>
   <rect fill="#d6d9dd" height="30" id="svg_4" rx="4" width="30" x="41.25" y="7.5"/>
   <rect fill="#d6d9dd" height="30" id="svg_5" rx="4" width="30" x="75" y="7.5"/>
   <rect fill="#d6d9dd" height="30" id="svg_6" rx="4" width="30" x="108.75" y="7.5"/>
   <path d="m26.491,15.143l0,2.357l-1.402,0c-1.098,0 -1.304,0.527 -1.304,1.286l0,1.688l2.616,0l-0.348,2.643l-2.268,0l0,6.777l-2.732,0l0,-6.777l-2.277,0l0,-2.643l2.277,0l0,-1.946c0,-2.259 1.384,-3.491 3.402,-3.491c0.964,0 1.795,0.071 2.036,0.107l0,-0.001z" fill="#ffffff" fill-rule="nonzero" id="svg_7"/>
   <path d="m63.286,18.429c-0.393,0.571 -0.884,1.08 -1.446,1.491l0.009,0.375c0,3.813 -2.902,8.205 -8.205,8.205c-1.634,0 -3.152,-0.473 -4.429,-1.295c0.232,0.027 0.455,0.036 0.696,0.036c1.348,0 2.589,-0.455 3.58,-1.232c-1.268,-0.027 -2.33,-0.857 -2.696,-2c0.179,0.027 0.357,0.045 0.545,0.045c0.259,0 0.518,-0.036 0.759,-0.098c-1.321,-0.268 -2.313,-1.429 -2.313,-2.83l0,-0.036c0.384,0.214 0.83,0.348 1.304,0.366c-0.777,-0.518 -1.286,-1.402 -1.286,-2.402c0,-0.536 0.143,-1.027 0.393,-1.455c1.42,1.75 3.554,2.893 5.946,3.018c-0.045,-0.214 -0.071,-0.438 -0.071,-0.661c0,-1.589 1.286,-2.884 2.884,-2.884c0.83,0 1.58,0.348 2.107,0.911c0.652,-0.125 1.277,-0.366 1.83,-0.696c-0.214,0.67 -0.67,1.232 -1.268,1.589c0.58,-0.063 1.143,-0.223 1.661,-0.446l0,-0.001z" fill="#ffffff" fill-rule="nonzero" id="svg_8"/>
   <path d="m96.482,22.857c0,3.786 -3.071,6.857 -6.857,6.857c-0.679,0 -1.321,-0.098 -1.946,-0.286c0.259,-0.411 0.554,-0.938 0.696,-1.464l0.482,-1.884c0.232,0.455 0.929,0.857 1.67,0.857c2.205,0 3.705,-2.009 3.705,-4.705c0,-2.027 -1.723,-3.929 -4.348,-3.929c-3.25,0 -4.893,2.339 -4.893,4.286c0,1.179 0.446,2.232 1.402,2.625c0.152,0.063 0.295,0 0.339,-0.179l0.143,-0.545c0.045,-0.179 0.027,-0.232 -0.098,-0.384c-0.277,-0.33 -0.455,-0.75 -0.455,-1.348c0,-1.732 1.295,-3.286 3.375,-3.286c1.839,0 2.857,1.125 2.857,2.634c0,1.973 -0.875,3.643 -2.179,3.643c-0.714,0 -1.25,-0.589 -1.08,-1.321c0.205,-0.866 0.607,-1.804 0.607,-2.429c0,-0.563 -0.304,-1.036 -0.929,-1.036c-0.732,0 -1.321,0.759 -1.321,1.777c0,0 0,0.652 0.223,1.089c-0.75,3.179 -0.884,3.732 -0.884,3.732c-0.125,0.518 -0.134,1.098 -0.116,1.58c-2.42,-1.063 -4.107,-3.473 -4.107,-6.286c0,-3.786 3.071,-6.857 6.857,-6.857s6.857,3.071 6.857,6.857l0,0.002z" fill="#ffffff" fill-rule="nonzero" id="svg_9"/>
   <path d="m130.697751,22.760231c-0.680368,-0.111493 -1.388495,-0.184901 -1.963494,-0.204771l-0.101404,-0.003312c0.023227,-0.049675 0.040788,-0.083343 0.046453,-0.088311c0.012463,-0.009935 0.02266,-0.051883 0.023793,-0.092727c0,-0.02263 0.010197,-0.096038 0.026059,-0.19318c0.155788,0.005519 0.362561,0.009935 0.588029,0.011591c0.870713,0.006623 1.781647,0.075064 2.406498,0.182693c0.372191,0.064025 0.495122,0.061818 0.220369,-0.003312c-0.278152,-0.065681 -1.102978,-0.162271 -1.76012,-0.204219c-0.441305,-0.029253 -1.074087,-0.040292 -1.446845,-0.034221c0.010764,-0.062922 0.023227,-0.133018 0.036256,-0.204771c0.052685,-0.277628 0.070246,-0.556911 0.071379,-1.112719c0.001133,-0.862136 -0.046453,-1.099472 -0.334802,-1.66963c-0.117266,-0.23292 -0.249827,-0.430516 -0.410147,-0.609346c0.139926,-0.402367 0.136527,-1.025511 -0.008498,-1.571936c-0.119532,-0.448178 -0.161453,-0.476879 -0.578398,-0.390776c-0.353497,0.073409 -0.636748,0.17331 -0.999875,0.351588c-0.17165,0.084447 -0.408448,0.21581 -0.580097,0.319023c-0.447536,-0.15344 -0.910368,-0.254998 -1.404357,-0.30964c-0.500787,-0.055194 -1.728396,-0.024286 -2.164036,0.05409c-0.426009,0.07672 -0.809531,0.170551 -1.156796,0.282043c-0.173349,-0.104317 -0.424876,-0.245063 -0.604457,-0.333374c-0.364827,-0.17883 -0.648078,-0.27818 -1.002708,-0.351588c-0.415812,-0.086655 -0.458866,-0.057402 -0.577831,0.390776c-0.14729,0.5536 -0.148423,1.187231 -0.002833,1.588494c0.016995,0.045811 0.027192,0.078376 0.031158,0.103765c-0.590295,0.72415 -0.782905,1.534404 -0.654876,2.665336c0.033424,0.294738 0.084975,0.56519 0.156921,0.813013c-0.376723,-0.002208 -0.912634,0.011039 -1.299554,0.035324c-0.658275,0.0425 -1.483101,0.137986 -1.761253,0.203667c-0.274187,0.065129 -0.152389,0.067337 0.220369,0.003864c0.624851,-0.107077 1.536352,-0.176622 2.406498,-0.182693c0.164285,-0.000552 0.317807,-0.003864 0.449802,-0.007175c0.039655,0.130811 0.084975,0.25555 0.136527,0.374218l-0.003966,0.000552c-0.574999,0.019318 -1.282559,0.092727 -1.962928,0.204219c-0.510418,0.083343 -1.263865,0.25003 -1.351672,0.29805c-0.09234,0.050227 -0.016995,0.039188 0.378423,-0.058506c0.721156,-0.177726 1.658716,-0.314056 2.820044,-0.40899l0.129729,-0.011039c0.249261,0.564086 0.633349,0.994603 1.176057,1.330184c0.33197,0.205875 0.863915,0.417269 1.13187,0.450386c0.073645,0.008831 0.287783,0.051883 0.475861,0.094934c0.188645,0.043052 0.557437,0.107629 0.819161,0.144609l0.006232,0c-0.005099,0.003312 -0.009631,0.005519 -0.014163,0.008831c-0.317241,0.160616 -0.523447,0.410646 -0.66224,0.804182c-0.062315,0.018214 -0.139926,0.043052 -0.223768,0.071201c-0.299679,0.09935 -0.416379,0.119772 -0.720023,0.12198c-0.314975,0.002208 -0.389753,-0.011039 -0.577831,-0.097142c-0.27362,-0.124187 -0.528546,-0.352692 -0.698496,-0.625352c-0.283817,-0.455906 -0.774407,-0.778241 -1.183422,-0.778241c-0.349531,0 -0.415812,0.137986 -0.163152,0.339445c0.380689,0.303017 0.665073,0.612106 0.781772,0.848337c0.065714,0.132466 0.166551,0.337238 0.224901,0.454802c0.061749,0.125291 0.193744,0.29529 0.319507,0.412854c0.295714,0.274868 0.581231,0.406231 1.00724,0.468048c0.285517,0.040844 0.355763,0.040844 0.692831,-0.001104c0.162586,-0.019318 0.299679,-0.041948 0.42261,-0.070097c0,0.134674 0,0.28977 0,0.471912c0,0.974733 -0.011897,1.288237 -0.051552,1.379859c-0.074778,0.174414 -0.242463,0.353796 -0.405615,0.43438c-0.162586,0.080584 -0.213005,0.169447 -0.144458,0.251134c0.037956,0.044155 0.111034,0.051883 0.356329,0.036428c0.465664,-0.028149 0.794802,-0.19594 0.962486,-0.491782c0.053818,-0.094934 0.066281,-0.285907 0.083276,-1.279406c0.018128,-1.077946 0.026059,-1.181711 0.098005,-1.335704c0.043621,-0.091623 0.106502,-0.190973 0.141625,-0.218018c0.058916,-0.047467 0.062882,0.046363 0.062882,1.335704c-0.000567,1.422911 -0.015296,1.594565 -0.161453,1.868329c-0.032857,0.06237 -0.095172,0.143505 -0.138793,0.182141c-0.076478,0.067889 -0.108768,0.241751 -0.055517,0.294186c0.087808,0.084999 0.527979,-0.048571 0.768176,-0.23292c0.409014,-0.315712 0.457733,-0.576781 0.461132,-2.462221l0.0017,-1.106095l0.124064,0.011591l0.124064,0.011039l0.020394,1.446644c0.023227,1.628786 0.026626,1.652519 0.311009,1.967127c0.161453,0.177726 0.324039,0.275972 0.588595,0.352692c0.354063,0.103765 0.460566,-0.056298 0.222635,-0.333926c-0.258891,-0.301913 -0.271354,-0.417269 -0.257192,-2.204463c0.009631,-1.145835 0.009631,-1.145835 0.085542,-1.07905c0.159753,0.141298 0.190344,0.373114 0.190344,1.447748c0,1.3346 0.039089,1.461547 0.522881,1.694467c0.226034,0.107629 0.289482,0.120876 0.578964,0.12198c0.308177,0.001104 0.326871,-0.003312 0.338201,-0.081688c0.009631,-0.063474 -0.028325,-0.106525 -0.172216,-0.192076c-0.188645,-0.113148 -0.319507,-0.257758 -0.40165,-0.439899c-0.031158,-0.070097 -0.052118,-0.529314 -0.066281,-1.474794c-0.020394,-1.320801 -0.024926,-1.380963 -0.109335,-1.587942c-0.113867,-0.27818 -0.287783,-0.497853 -0.508152,-0.643566c-0.057217,-0.036428 -0.114433,-0.066785 -0.188645,-0.089415c0.091207,-0.008831 0.179581,-0.018214 0.265123,-0.030357c0.89054,-0.115356 1.361303,-0.211394 1.739159,-0.353796c0.799334,-0.299705 1.339776,-0.797559 1.632657,-1.503495c0.026059,-0.062922 0.052118,-0.122532 0.074212,-0.170551l0.225468,0.018214c1.161894,0.095486 2.099454,0.231816 2.820611,0.410094c0.395418,0.097694 0.470763,0.109285 0.378423,0.057954c-0.086108,-0.046915 -0.839555,-0.21305 -1.349406,-0.296394zm-3.40694,-0.01711c-0.131995,0.282595 -0.500221,0.645774 -0.797634,0.788176c-0.293448,0.141298 -0.753447,0.248927 -1.274628,0.300257c-0.356329,0.035324 -2.343617,0.045811 -2.671621,0.014351c-1.085983,-0.103765 -1.694406,-0.307433 -2.143075,-0.715319c-0.424876,-0.387464 -0.623152,-0.913467 -0.588595,-1.560897c0.022094,-0.405127 0.122364,-0.659573 0.384654,-0.968661c0.238497,-0.281491 0.489457,-0.455354 0.785171,-0.543665c0.247561,-0.07396 1.00724,-0.080584 2.028642,-0.016558c0.451502,0.028149 0.824826,0.028149 1.275761,0c1.068422,-0.065681 1.781647,-0.058506 2.04507,0.020974c0.414113,0.124739 0.791403,0.460321 1.018003,0.907395c0.10197,0.199804 0.121798,0.284803 0.136527,0.593339c0.020394,0.424997 -0.054951,0.876487 -0.198276,1.180608zm-5.387429,-1.824726c-0.607856,-0.103765 -0.955121,0.910155 -0.488891,1.427878c0.221502,0.245615 0.418078,0.285907 0.66394,0.136882c0.227734,-0.138538 0.351231,-0.397399 0.351231,-0.732981c0,-0.447626 -0.209039,-0.776585 -0.52628,-0.831779zm3.689624,0.060714c-0.607856,-0.103765 -0.955688,0.909051 -0.489457,1.427326c0.222069,0.245615 0.418078,0.286459 0.664506,0.13633c0.227167,-0.137986 0.351231,-0.397399 0.351231,-0.732981c0,-0.445971 -0.209039,-0.776033 -0.52628,-0.830675zm-1.634923,1.993621c-0.01303,0.040844 -0.076478,0.101558 -0.140492,0.134122c-0.162019,0.081136 -0.278719,0.052987 -0.449802,-0.098798c-0.105936,-0.093278 -0.154088,-0.142401 -0.186379,-0.044707c-0.030025,0.090519 0.15862,0.272108 0.304211,0.327855c0.133694,0.051883 0.229433,0.053539 0.374457,-0.005519c0.143891,-0.058506 0.269655,-0.21581 0.269655,-0.31792c0,-0.094934 -0.139926,-0.090519 -0.17165,0.004967zm-0.179581,-0.317368c0.09234,-0.07948 0.1133,-0.242855 0.024926,-0.32951s-0.267955,-0.073409 -0.338201,0.023734c-0.081576,0.1137 -0.037956,0.200356 0.020394,0.29253c0.09064,0.068441 0.212438,0.08224 0.292881,0.013247z" fill="#ffffff" id="svg_11" stroke-dasharray="null" stroke-linecap="null" stroke-linejoin="null" stroke-width="null"/>
  </g>
 </g>
</svg>
