<?xml version="1.0"?>
<svg width="147" height="45" xmlns="http://www.w3.org/2000/svg" xmlns:svg="http://www.w3.org/2000/svg">
 <g class="layer">
  <title>Layer 1</title>
  <g fill="none" id="svg_1">
   <rect fill="#fff" height="45" id="svg_2" rx="4" width="146.25" x="0" y="0"/>
   <rect height="30" id="svg_3" rx="3" width="30" x="7.5" y="7.5"/>
   <path d="m26.491,15.1775l0,2.357l-1.402,0c-1.098,0 -1.304,0.527 -1.304,1.286l0,1.688l2.616,0l-0.348,2.643l-2.268,0l0,6.777l-2.732,0l0,-6.777l-2.277,0l0,-2.643l2.277,0l0,-1.946c0,-2.259 1.384,-3.491 3.402,-3.491c0.964,0 1.795,0.071 2.036,0.107l0,-0.001z" fill="#d6d9dd" fill-rule="nonzero" id="svg_7"/>
   <path d="m63.286,18.143c-0.393,0.571 -0.884,1.08 -1.446,1.491l0.009,0.375c0,3.813 -2.902,8.205 -8.205,8.205c-1.634,0 -3.152,-0.473 -4.429,-1.295c0.232,0.027 0.455,0.036 0.696,0.036c1.348,0 2.589,-0.455 3.58,-1.232c-1.268,-0.027 -2.33,-0.857 -2.696,-2c0.179,0.027 0.357,0.045 0.545,0.045c0.259,0 0.518,-0.036 0.759,-0.098c-1.321,-0.268 -2.313,-1.429 -2.313,-2.83l0,-0.036c0.384,0.214 0.83,0.348 1.304,0.366c-0.777,-0.518 -1.286,-1.402 -1.286,-2.402c0,-0.536 0.143,-1.027 0.393,-1.455c1.42,1.75 3.554,2.893 5.946,3.018c-0.045,-0.214 -0.071,-0.438 -0.071,-0.661c0,-1.589 1.286,-2.884 2.884,-2.884c0.83,0 1.58,0.348 2.107,0.911c0.652,-0.125 1.277,-0.366 1.83,-0.696c-0.214,0.67 -0.67,1.232 -1.268,1.589c0.58,-0.063 1.143,-0.223 1.661,-0.446l0,-0.001z" fill="#d6d9dd" fill-rule="nonzero" id="svg_8"/>
   <path d="m97.482,22.501c0,3.786 -3.071,6.857 -6.857,6.857c-0.679,0 -1.321,-0.098 -1.946,-0.286c0.259,-0.411 0.554,-0.938 0.696,-1.464l0.482,-1.884c0.232,0.455 0.929,0.857 1.67,0.857c2.205,0 3.705,-2.009 3.705,-4.705c0,-2.027 -1.723,-3.929 -4.348,-3.929c-3.25,0 -4.893,2.339 -4.893,4.286c0,1.179 0.446,2.232 1.402,2.625c0.152,0.063 0.295,0 0.339,-0.179l0.143,-0.545c0.045,-0.179 0.027,-0.232 -0.098,-0.384c-0.277,-0.33 -0.455,-0.75 -0.455,-1.348c0,-1.732 1.295,-3.286 3.375,-3.286c1.839,0 2.857,1.125 2.857,2.634c0,1.973 -0.875,3.643 -2.179,3.643c-0.714,0 -1.25,-0.589 -1.08,-1.321c0.205,-0.866 0.607,-1.804 0.607,-2.429c0,-0.563 -0.304,-1.036 -0.929,-1.036c-0.732,0 -1.321,0.759 -1.321,1.777c0,0 0,0.652 0.223,1.089c-0.75,3.179 -0.884,3.732 -0.884,3.732c-0.125,0.518 -0.134,1.098 -0.116,1.58c-2.42,-1.063 -4.107,-3.473 -4.107,-6.286c0,-3.786 3.071,-6.857 6.857,-6.857s6.857,3.071 6.857,6.857l0,0.002z" fill="#d6d9dd" fill-rule="nonzero" id="svg_9"/>
   <path d="m131.558144,22.197833c-0.7381,-0.124387 -1.506315,-0.206285 -2.130105,-0.228453l-0.110008,-0.003695c0.025197,-0.05542 0.044249,-0.092982 0.050395,-0.098524c0.013521,-0.011084 0.024583,-0.057883 0.025812,-0.103451c0,-0.025247 0.011062,-0.107145 0.02827,-0.215522c0.169007,0.006158 0.393326,0.011084 0.637925,0.012931c0.944596,0.007389 1.932827,0.083746 2.610699,0.203822c0.403773,0.07143 0.537135,0.068967 0.239068,-0.003695c-0.301755,-0.073277 -1.196571,-0.181039 -1.909473,-0.227838c-0.478751,-0.032636 -1.165227,-0.044952 -1.569615,-0.038178c0.011677,-0.070199 0.025197,-0.148402 0.039333,-0.228453c0.057155,-0.309736 0.076207,-0.621319 0.077436,-1.241407c0.001229,-0.961844 -0.050395,-1.226628 -0.363212,-1.862726c-0.127216,-0.259858 -0.271026,-0.480306 -0.44495,-0.679818c0.151799,-0.448902 0.148112,-1.144114 -0.009219,-1.753734c-0.129675,-0.500011 -0.175153,-0.532032 -0.627477,-0.43597c-0.383493,0.081898 -0.690778,0.193354 -1.084719,0.39225c-0.186215,0.094214 -0.443106,0.240769 -0.629321,0.355919c-0.485511,-0.171186 -0.987616,-0.284489 -1.523523,-0.345451c-0.543281,-0.061578 -1.875057,-0.027094 -2.347663,0.060346c-0.462158,0.085593 -0.878223,0.190275 -1.254955,0.314662c-0.188059,-0.116382 -0.460929,-0.273405 -0.655748,-0.371929c-0.395784,-0.199512 -0.70307,-0.310352 -1.087791,-0.39225c-0.451095,-0.096677 -0.497803,-0.064041 -0.626863,0.43597c-0.159789,0.617625 -0.161018,1.324537 -0.003073,1.772207c0.018437,0.05111 0.029499,0.08744 0.033801,0.115766c-0.640383,0.8079 -0.849338,1.711861 -0.710445,2.973588c0.03626,0.328825 0.092186,0.630556 0.170236,0.90704c-0.40869,-0.002463 -0.990075,0.012316 -1.409827,0.03941c-0.714132,0.047415 -1.608948,0.153944 -1.910703,0.227222c-0.297453,0.072662 -0.16532,0.075125 0.239068,0.00431c0.677872,-0.119461 1.666718,-0.197049 2.610699,-0.203822c0.178226,-0.000616 0.344775,-0.00431 0.48797,-0.008005c0.04302,0.145939 0.092186,0.285105 0.148112,0.417497l-0.004302,0.000616c-0.62379,0.021552 -1.39139,0.103451 -2.12949,0.227838c-0.553729,0.092982 -1.371109,0.278947 -1.466367,0.33252c-0.100175,0.056036 -0.018437,0.04372 0.410534,-0.065272c0.782349,-0.19828 1.799465,-0.350377 3.059337,-0.456291l0.140737,-0.012316c0.270411,0.629324 0.687091,1.109631 1.27585,1.484023c0.360139,0.229685 0.937221,0.465528 1.227914,0.502474c0.079894,0.009852 0.312202,0.057883 0.51624,0.105914c0.204652,0.048031 0.604738,0.120077 0.88867,0.161334l0.00676,0c-0.005531,0.003695 -0.010448,0.006158 -0.015364,0.009852c-0.34416,0.179191 -0.567864,0.458138 -0.718434,0.897187c-0.067603,0.020321 -0.151799,0.048031 -0.242756,0.079435c-0.325108,0.11084 -0.45171,0.133624 -0.78112,0.136087c-0.341702,0.002463 -0.422825,-0.012316 -0.626863,-0.108377c-0.296838,-0.13855 -0.573395,-0.393482 -0.757767,-0.697676c-0.3079,-0.508632 -0.840119,-0.868246 -1.28384,-0.868246c-0.379191,0 -0.451095,0.153944 -0.176997,0.378703c0.412992,0.338062 0.721507,0.682897 0.848109,0.94645c0.07129,0.147787 0.180684,0.37624 0.243985,0.5074c0.066988,0.139781 0.210183,0.329441 0.346618,0.460601c0.320806,0.306657 0.63055,0.453212 1.092708,0.522179c0.309744,0.045568 0.385951,0.045568 0.751621,-0.001232c0.176382,-0.021552 0.325108,-0.046799 0.45847,-0.078204c0,0.15025 0,0.323283 0,0.52649c0,1.087463 -0.012906,1.437224 -0.055926,1.539443c-0.081123,0.194586 -0.263037,0.394713 -0.440033,0.484617c-0.176382,0.089903 -0.231079,0.189044 -0.156716,0.280179c0.041176,0.049262 0.120456,0.057883 0.386565,0.040641c0.505178,-0.031405 0.862244,-0.218601 1.044157,-0.548658c0.058384,-0.105914 0.071905,-0.318973 0.090342,-1.427372c0.019666,-1.202613 0.02827,-1.318379 0.106321,-1.490181c0.047322,-0.102219 0.115539,-0.213059 0.153643,-0.243232c0.063915,-0.052957 0.068217,0.051725 0.068217,1.490181c-0.000615,1.587474 -0.016593,1.778981 -0.175153,2.084406c-0.035645,0.069583 -0.103248,0.160102 -0.15057,0.203206c-0.082967,0.075741 -0.117998,0.26971 -0.060228,0.328209c0.095259,0.09483 0.572781,-0.054188 0.833359,-0.259858c0.443721,-0.352225 0.496574,-0.643487 0.500261,-2.746982l0.001844,-1.234018l0.134591,0.012931l0.134591,0.012316l0.022125,1.613952c0.025197,1.817159 0.028885,1.843637 0.3374,2.19463c0.175153,0.19828 0.351535,0.307889 0.63854,0.393482c0.384107,0.115766 0.499647,-0.062809 0.241527,-0.372545c-0.280859,-0.33683 -0.29438,-0.465528 -0.279015,-2.459414c0.010448,-1.278354 0.010448,-1.278354 0.0928,-1.203845c0.173309,0.157639 0.206496,0.416265 0.206496,1.615184c0,1.488949 0.042405,1.630578 0.567249,1.890436c0.245214,0.120077 0.314046,0.134855 0.628092,0.136087c0.334327,0.001232 0.354608,-0.003695 0.366899,-0.091135c0.010448,-0.070814 -0.030729,-0.118845 -0.18683,-0.21429c-0.204652,-0.126234 -0.346618,-0.287568 -0.435731,-0.490774c-0.033801,-0.078204 -0.056541,-0.59053 -0.071905,-1.645357c-0.022125,-1.473555 -0.027041,-1.540675 -0.118612,-1.771591c-0.123529,-0.310352 -0.312202,-0.555431 -0.551271,-0.717996c-0.062072,-0.040641 -0.124143,-0.074509 -0.204652,-0.099756c0.098946,-0.009852 0.194819,-0.020321 0.287619,-0.033868c0.966106,-0.128697 1.476815,-0.235843 1.886734,-0.394713c0.86716,-0.334367 1.453461,-0.889798 1.771195,-1.677377c0.02827,-0.070199 0.056541,-0.136703 0.080509,-0.190275l0.244599,0.020321c1.260486,0.106529 2.277602,0.258626 3.059951,0.457523c0.428971,0.108993 0.510709,0.121924 0.410534,0.064657c-0.093415,-0.052341 -0.910795,-0.23769 -1.463909,-0.330672zm-3.696033,-0.019089c-0.143195,0.315278 -0.542667,0.720459 -0.865317,0.87933c-0.318348,0.157639 -0.81738,0.277716 -1.382786,0.334983c-0.386565,0.03941 -2.542482,0.05111 -2.898319,0.01601c-1.178133,-0.115766 -1.838183,-0.342988 -2.324924,-0.798047c-0.460929,-0.432276 -0.676029,-1.019111 -0.63854,-1.741418c0.023968,-0.451981 0.132747,-0.735854 0.417294,-1.080689c0.258735,-0.314046 0.53099,-0.508016 0.851796,-0.606541c0.268568,-0.082514 1.092708,-0.089903 2.20078,-0.018473c0.489813,0.031405 0.894816,0.031405 1.384015,0c1.159082,-0.073277 1.932827,-0.065272 2.218603,0.0234c0.449252,0.139166 0.858556,0.513558 1.104385,1.012338c0.110623,0.222911 0.132133,0.317741 0.148112,0.661961c0.022125,0.474148 -0.059613,0.977854 -0.2151,1.317148zm-5.844574,-2.03576c-0.659435,-0.115766 -1.036167,1.015417 -0.530375,1.593016c0.240297,0.274021 0.453554,0.318973 0.720278,0.152713c0.247058,-0.15456 0.381034,-0.44336 0.381034,-0.817752c0,-0.499395 -0.226777,-0.866399 -0.570937,-0.927976zm4.002704,0.067735c-0.659435,-0.115766 -1.036782,1.014185 -0.53099,1.5924c0.240912,0.274021 0.453554,0.319588 0.720892,0.152097c0.246443,-0.153944 0.381034,-0.44336 0.381034,-0.817752c0,-0.497548 -0.226777,-0.865783 -0.570937,-0.926745zm-1.773653,2.224187c-0.014135,0.045568 -0.082967,0.113303 -0.152414,0.149634c-0.175767,0.090519 -0.302369,0.059115 -0.48797,-0.110224c-0.114925,-0.104066 -0.167163,-0.158871 -0.202194,-0.049878c-0.032572,0.100987 0.17208,0.303578 0.330025,0.365772c0.145039,0.057883 0.248901,0.05973 0.406232,-0.006158c0.156101,-0.065272 0.292536,-0.240769 0.292536,-0.354688c0,-0.105914 -0.151799,-0.100987 -0.186215,0.005542zm-0.194819,-0.354072c0.100175,-0.088672 0.122914,-0.270942 0.027041,-0.367619s-0.290692,-0.081898 -0.366899,0.026478c-0.088498,0.12685 -0.041176,0.223527 0.022125,0.326362c0.098331,0.076356 0.230464,0.091751 0.317733,0.014779z" fill="#d6d9dd" id="svg_4" stroke-dasharray="null" stroke-linecap="null" stroke-linejoin="null" stroke-width="null"/>
  </g>
 </g>
</svg>
