<?xml version="1.0"?>
<svg width="146" height="132" xmlns="http://www.w3.org/2000/svg" xmlns:svg="http://www.w3.org/2000/svg">
 <g class="layer">
  <title>Layer 1</title>
  <g fill="none" id="svg_1">
   <path d="m0.151001,0l145.698,0l0,132l-145.698,0l0,-132z" fill="#fff" id="svg_2"/>
   <rect fill="#d6d9dd" height="14.688999" id="svg_3" rx="6.5" width="46.075" x="12.604001" y="104.858"/>
   <path d="m12.604001,27.396l120.792,0l0,1.245l-120.792,0l0,-1.245z" fill="#d6d9dd" id="svg_4"/>
   <rect fill="#d6d9dd" height="3.736" id="svg_5" rx="1.5" width="27.396" x="12.604001" y="18.679"/>
   <path d="m12.604001,49.811l120.792,0l0,1.245l-120.792,0l0,-1.245z" fill="#d6d9dd" id="svg_6"/>
   <path d="m12.604001,89.66l120.792,0l0,1.245l-120.792,0l0,-1.245z" fill="#d6d9dd" id="svg_7"/>
   <rect fill="#d6d9dd" height="3.736" id="svg_8" rx="1.5" width="27.396" x="12.604001" y="41.094"/>
   <rect fill="#d6d9dd" height="3.736" id="svg_9" rx="1.5" width="33.623" x="12.604001" y="63.509"/>
  </g>
 </g>
</svg>
