<?xml version="1.0"?>
<svg width="147" height="94" xmlns="http://www.w3.org/2000/svg" xmlns:svg="http://www.w3.org/2000/svg">
 <g class="layer">
  <title>Layer 1</title>
  <g fill="none" id="svg_1">
   <path d="m0,-1l146.559,0l0,94l-146.559,0l0,-94z" fill="#fff" id="svg_2"/>
   <rect fill="#e5e5e5" height="79.981" id="svg_3" rx="4" width="131.540008" x="7.639995" y="5.889998"/>
   <path d="m73.785,27.301c10.602,0 19.204,8.602 19.204,19.204s-8.602,19.204 -19.204,19.204s-19.204,-8.602 -19.204,-19.204s8.602,-19.204 19.204,-19.204zm9.602,20.58c0.5,-0.275 0.8,-0.8 0.8,-1.375s-0.3,-1.1 -0.8,-1.375l-13.603,-8.002c-0.475,-0.3 -1.1,-0.3 -1.6,-0.025c-0.5,0.3 -0.8,0.825 -0.8,1.4l0,16.004c0,0.575 0.3,1.1 0.8,1.4c0.25,0.125 0.525,0.2 0.8,0.2s0.55,-0.075 0.8,-0.225l13.603,-8.002z" fill="#7f7f7f" fill-rule="nonzero" id="svg_4"/>
  </g>
 </g>
</svg>