<?xml version="1.0"?>
<svg width="148" height="94" xmlns="http://www.w3.org/2000/svg" xmlns:svg="http://www.w3.org/2000/svg">
 <g class="layer">
  <title>Layer 1</title>
  <g fill="none" id="svg_1">
   <path d="m0,0l147.57,0l0,94l-147.57,0l0,-94z" fill="#fff" id="svg_2"/>
   <path d="m74.29,28.301c10.881,0 19.71,8.602 19.71,19.204s-8.828,19.204 -19.71,19.204c-10.881,0 -19.71,-8.602 -19.71,-19.204s8.828,-19.204 19.71,-19.204zm9.855,20.58c0.513,-0.275 0.821,-0.8 0.821,-1.375s-0.308,-1.1 -0.821,-1.375l-13.961,-8.002c-0.488,-0.3 -1.129,-0.3 -1.642,-0.025c-0.513,0.3 -0.821,0.825 -0.821,1.4l0,16.004c0,0.575 0.308,1.1 0.821,1.4c0.257,0.125 0.539,0.2 0.821,0.2c0.282,0 0.565,-0.075 0.821,-0.225l13.961,-8.002z" fill="#7f7f7f" fill-rule="nonzero" id="svg_3"/>
  </g>
 </g>
</svg>