<?xml version="1.0"?>
<svg width="146" height="70" xmlns="http://www.w3.org/2000/svg" xmlns:svg="http://www.w3.org/2000/svg">
 <g class="layer">
  <title>Layer 1</title>
  <g fill="none" id="svg_1">
   <path d="m0.23,0l145.77,0l0,69.77l-145.77,0l0,-69.77z" fill="#fff" id="Rectangle-Copy-58"/>
   <g id="svg_2" transform="translate(7.705 7.475)">
    <rect fill="#D6D9DD" height="21.18" id="svg_3" rx="3" width="41.115"/>
    <rect fill="#fff" height="6.23" id="svg_4" rx="3" width="26.164" x="7.475" y="7.475"/>
   </g>
   <g id="svg_5">
    <rect fill="#E5E7EA" height="21.18" id="svg_6" rx="3" width="41.115" x="52.557999" y="7.475"/>
    <rect fill="#fff" fill-opacity="0.7" height="6.23" id="svg_7" rx="3" width="26.164" x="60.032999" y="14.95"/>
   </g>
   <g id="svg_8" transform="translate(97.41 7.475)">
    <rect fill="#E5E7EA" height="21.18" id="svg_9" rx="3" width="41.115"/>
    <rect fill="#fff" fill-opacity="0.7" height="6.23" id="svg_10" rx="3" width="26.164" x="7.475" y="7.475"/>
   </g>
   <g fill="#E5E7EA" id="svg_11">
    <rect fill="#ffffff" height="31.874999" id="svg_29" stroke-dasharray="null" stroke-linecap="null" stroke-linejoin="null" stroke-width="null" width="88.75" x="50.1875" y="4.812501"/>
    <rect fill="#ffffff" height="31.874999" id="svg_28" stroke-dasharray="null" stroke-linecap="null" stroke-linejoin="null" stroke-width="null" width="134.874998" x="4.687502" y="3.687501"/>
    <rect fill="#d6d9dd" height="16.125" id="svg_30" stroke-dasharray="null" stroke-linecap="null" stroke-linejoin="null" stroke-width="null" width="41.374999" x="7.5625" y="7.6875"/>
    <rect fill="#d6d9dd" height="3.738" id="svg_31" rx="1.5" width="85.324002" x="54.33" y="8.001999"/>
    <rect fill="#d6d9dd" height="16.125" id="svg_35" stroke-dasharray="null" stroke-linecap="null" stroke-linejoin="null" stroke-width="null" width="41.374999" x="7.5625" y="27.0625"/>
    <rect fill="#d6d9dd" height="16.125" id="svg_36" stroke-dasharray="null" stroke-linecap="null" stroke-linejoin="null" stroke-width="null" width="41.374999" x="7.5625" y="46.5625"/>
    <rect fill="#d6d9dd" height="3.738" id="svg_40" rx="1.5" width="85.324002" x="54.33" y="15.001999"/>
    <rect fill="#d6d9dd" height="3.738" id="svg_41" rx="1.5" width="85.324002" x="54.33" y="22.001999"/>
    <rect fill="#d6d9dd" height="3.738" id="svg_42" rx="1.5" width="85.324002" x="54.83" y="22.001999"/>
    <rect fill="#d6d9dd" height="3.738" id="svg_43" rx="1.5" width="85.324002" x="54.83" y="29.001999"/>
    <rect fill="#d6d9dd" height="3.738" id="svg_44" rx="1.5" width="85.324002" x="54.83" y="36.001999"/>
    <rect fill="#d6d9dd" height="3.738" id="svg_45" rx="1.5" width="85.324002" x="54.83" y="43.126999"/>
    <rect fill="#d6d9dd" height="3.738" id="svg_46" rx="1.5" width="85.324002" x="54.83" y="50.251999"/>
    <rect fill="#d6d9dd" height="3.738" id="svg_47" rx="1.5" width="85.324002" x="54.83" y="57.376999"/>
   </g>
  </g>
 </g>
</svg>
