<?xml version="1.0"?>
<svg width="93" height="92" xmlns="http://www.w3.org/2000/svg" xmlns:svg="http://www.w3.org/2000/svg">
 <g class="layer">
  <title>Layer 1</title>
  <g fill="none" id="svg_1">
   <path d="m0,0l93,0l0,92l-93,0l0,-92z" fill="#fff" id="svg_2"/>
   <g id="svg_3">
    <circle cx="46.5" cy="46" fill="#D6D9DD" id="svg_4" r="30"/>
    <path d="m65.49768,41.727917l-14.516092,0l-4.480928,-13.79042l-0.62918,1.927196l-3.857035,11.865868l-14.512127,-0.002644l11.740296,8.530947l-4.488859,13.799672l11.742939,-8.530947l11.745583,8.534912l-4.490181,-13.803638l11.745583,-8.530947zm-17.445218,11.660987l-1.553124,-1.127502l-1.553124,1.128824l-5.157694,3.746003l1.969493,-6.059166l0.594813,-1.826738l-1.555768,-1.130146l-5.15505,-3.746003l8.294343,0l0.594813,-1.825416l1.968172,-6.059166l1.968172,6.055201l0.593492,1.825416l8.302274,0l-5.162981,3.748647l-1.557089,1.128824l0.593492,1.829382l1.973459,6.059166l-5.157694,-3.747325z" fill="#ffffff" id="svg_6" stroke-dasharray="null" stroke-linecap="null" stroke-linejoin="null" stroke-width="null"/>
   </g>
  </g>
 </g>
</svg>
