<?xml version="1.0"?>
<svg width="146" height="188" xmlns="http://www.w3.org/2000/svg" xmlns:svg="http://www.w3.org/2000/svg">
 <title>Group 9</title>
 <desc>Created with Sketch.</desc>
 <g class="layer">
  <title>Layer 1</title>
  <g fill="none" id="svg_1">
   <path d="m0.25,0l146,0l0,188l-146,0l0,-188z" fill="#fff" id="svg_2"/>
   <g fill="#D6D9DD" id="svg_3">
    <rect fill="#d6d9dd" height="2.735" id="svg_25" rx="1.5" width="94.838" x="25.831001" y="29.618998"/>
    <rect fill="#d6d9dd" height="2.735" id="svg_26" rx="1.5" width="94.838" x="25.831001" y="38.618998"/>
    <rect fill="#d6d9dd" height="2.735" id="svg_27" rx="1.5" width="94.838" x="25.831001" y="48.118998"/>
    <rect fill="#d6d9dd" height="2.735" id="svg_4" rx="1.5" width="94.838" x="25.831001" y="19.118998"/>
    <rect fill="#d6d9dd" height="2.735" id="svg_5" rx="1.5" width="94.838" x="25.831001" y="58.618998"/>
   </g>
   <g id="svg_9">
    <rect fill="#F2F3F7" height="89.522999" id="svg_10" rx="4" width="93.543002" x="25.728495" y="78.2"/>
    <path d="m40.661414,96.698541l0,53.499999l64.677172,0l0,-53.499999l-64.677172,0zm54.496506,48.907919l-44.31584,0l0,-44.31584l44.31584,0l0,44.31584zm-33.536311,-26.948822c3.415913,0 6.187449,-2.771537 6.187449,-6.187449c0,-3.418308 -2.771537,-6.187449 -6.187449,-6.187449c-3.418308,0 -6.187449,2.771537 -6.187449,6.187449c0,3.415913 2.769141,6.187449 6.187449,6.187449zm31.143256,5.389764l-11.778432,-11.778432l-16.569333,16.569333l-4.592079,-4.592079l-6.592281,6.592281l0,12.372503l39.532125,0l0,-19.163607z" fill="#d6d9dd" id="svg_6" stroke-dasharray="null" stroke-linecap="null" stroke-linejoin="null" stroke-width="null"/>
   </g>
  </g>
 </g>
</svg>
